PathFileType	4	(X/Y/Z)	C:\Users\°ÂÌØÂü\Desktop\20210112\bx_y_0_1802-Unnamed.trc
DataRate	CameraRate	NumFrames	NumMarkers	Units	OrigDataRate	OrigDataStartFrame	OrigNumFrames
50.00	50.00	       6	0	mm	50.00	282	       375
Frame#	Time	
		

282	5.620	-719.37811	243.41721	643.85297				-637.39160	273.15756	880.65210	-582.13855	208.41064	818.35303	-671.00275	198.81442	535.14996	-688.59009	265.41736	753.78552	-687.23962	77.11696	581.73053	-723.38568	239.09431	580.05408	-666.62024	14.53282	521.54626	-766.44824	248.29132	506.21512	-694.02240	-55.98418	721.27325	-675.36322	-70.77346	1551.80005	-667.10730	-68.52408	161.11842	-711.13104	150.73911	215.84015	-770.85632	219.81114	205.44872	-882.51746	296.10852	144.58578	-604.05042	17.13058	169.03093	-675.07050	171.38751	156.36554	-594.57373	222.32657	173.51451	-666.80994	297.94559	161.01768	-560.24689	261.88611	165.21481	-528.03583	304.25760	146.54501	-694.20038	118.86225	1851.18481	-696.58978	292.64243	1530.81348	-625.55444	-79.88587	157.61668	-517.45801	-72.64143	143.04163	-629.26093	306.07458	163.39888	-607.40601	103.68723	1433.69446	-769.27386	-4.96914	208.18002	-793.58020	57.51797	175.75937	-795.70496	170.78665	184.83675	-595.10242	-17.39293	1055.96985	-765.26062	-34.76109	491.88293	-875.98657	-78.65415	141.42352	-586.50317	210.48993	1074.05200	-699.46191	-32.88175	617.10913	-714.46350	-28.13642	569.81671	-562.91516	-42.02901	162.85057	-792.43420	87.81622	1055.96838	-715.72736	75.91413	217.79985	-584.82373	-11.20670	806.59003	-684.66620	136.98247	579.31476	-675.29291	54.27401	160.44127				-646.37213	-76.91841	862.25201	
283	5.640	-719.50757	243.24042	643.92920				-637.75769	273.33405	880.71655	-582.46112	208.81454	818.27380	-671.66022	199.00450	535.50861	-688.95026	265.42047	753.49170	-687.70288	77.08469	582.05896	-723.91534	239.03302	580.04102	-666.77466	14.44511	521.69739	-766.95929	248.11826	506.17902	-694.48029	-55.89866	721.75330	-675.61023	-70.75394	1551.69287	-667.00562	-68.44171	161.19577	-711.09564	150.62941	215.95912	-770.75568	219.77455	205.57672	-882.50006	296.18253	144.69447	-604.01532	17.16109	168.99445	-674.86481	171.42433	156.35460	-594.63757	222.36014	173.45738	-666.82214	298.01434	161.05629	-560.15833	261.79993	165.07921	-528.07770	304.24625	146.45256	-694.71478	119.12112	1851.33081	-697.28918	292.36053	1530.79797	-625.53284	-80.09410	157.79837	-517.53790	-72.76075	143.09290	-629.45209	305.98306	163.16869	-608.60547	103.59933	1433.42859	-769.43420	-5.04624	207.99498	-793.90625	57.49189	175.79253	-795.66724	170.57755	184.64093	-595.37811	-17.11053	1055.87317	-765.43542	-34.70168	491.68335	-875.73187	-78.90451	141.55847	-586.48785	210.64255	1074.37866	-699.52484	-32.84354	616.98816	-715.06909	-28.18998	569.56592	-562.86005	-42.07669	162.91037	-792.55396	87.80873	1056.13562	-715.85303	75.85612	217.58997	-585.07526	-11.13613	806.55432	-684.75519	137.03719	579.52325	-675.08258	54.14183	160.43994				-646.84216	-76.84327	862.27423	
284	5.660	-719.78680	243.59221	644.13770				-638.14899	273.55643	880.75995	-583.25006	208.65427	818.07568	-672.16766	199.34909	535.26849	-689.08191	265.59677	753.57898	-687.70288	77.08469	582.05896	-724.29535	239.19344	579.92731	-667.38123	14.48668	521.57013	-767.19208	248.29164	506.10379	-694.01678	-55.30114	721.18616	-675.99176	-70.52519	1551.62598	-667.04498	-68.39362	161.13464	-711.04816	150.69928	215.77567	-770.96265	220.16048	205.64752	-882.55322	296.16104	144.62874	-604.08685	17.18661	169.05574	-675.39148	171.65759	156.39745	-594.57373	222.28026	173.52663	-666.76477	297.97372	161.09695	-560.33270	261.87570	165.26785	-527.99902	304.12732	146.59570	-695.14734	119.61464	1851.38562	-698.27350	292.20792	1530.42334	-625.28082	-79.90823	157.83527	-517.53790	-72.76075	143.09290	-629.50513	305.97592	163.22836	-608.84924	103.95096	1433.53906	-769.27271	-5.13660	207.91681	-793.93079	57.58664	175.96358	-795.57123	170.73955	184.77641	-595.58423	-17.05559	1055.97156	-765.84094	-34.43050	491.46497	-875.60840	-78.80363	141.39221	-586.73615	210.76381	1074.15784	-699.88959	-33.19942	617.33783	-715.51001	-28.52536	569.98608	-562.77185	-42.04319	163.03587	-793.01605	87.95396	1056.18689	-716.03229	75.93110	217.58784	-585.44861	-11.07238	806.74768	-684.91296	137.20406	579.73138	-675.29291	54.27401	160.44127				-647.13013	-76.71553	862.10669	
285	5.680	-719.80969	243.56017	643.97699				-638.33252	273.37286	880.51563	-583.28528	208.75706	818.23407	-672.43622	199.24222	535.40570	-689.23267	265.51633	753.24121	-688.15057	77.07874	581.93536	-724.76123	239.57362	580.14728	-667.55444	14.46592	521.86957	-767.45526	248.31335	505.96405	-695.13287	-55.48504	721.45538	-676.21216	-70.49767	1551.59814	-667.10730	-68.52408	161.11842	-711.10974	150.67180	215.82808	-770.93024	219.96347	205.55095	-882.44482	295.90137	144.46693	-604.00079	17.09250	168.90164	-675.39148	171.65759	156.39745	-594.71112	222.46974	173.44844	-666.82214	298.01434	161.05629	-560.40704	261.71289	165.06886	-528.08600	304.15735	146.47820	-695.52252	119.47157	1851.34595	-698.88647	292.23199	1530.31018	-625.16034	-79.92230	157.73950	-517.49182	-72.85801	142.98698	-629.44391	305.94211	162.99130	-608.89716	103.94012	1433.49109	-769.48993	-5.24116	207.75470	-793.62164	57.42355	175.68948	-795.76788	170.71210	184.62187	-595.87311	-17.07850	1055.93433	-765.94971	-34.53252	491.66443	-875.79523	-78.72449	141.54755	-587.44855	210.90614	1073.91663	-700.56934	-33.17285	617.17688	-716.00366	-28.13352	569.96625	-562.92126	-41.92455	163.01283	-793.26324	87.91222	1056.08081	-716.03229	75.93110	217.58784	-585.85638	-10.69963	806.55176	-685.34357	137.46368	579.48706	-675.29291	54.27401	160.44127	
286	5.700	-720.08643	243.90863	644.18005				-638.60498	273.89389	880.78149	-583.71985	208.84805	818.23779	-672.69183	199.34001	535.30396	-689.59326	265.63535	753.06329	-688.98901	77.10596	582.08710	-725.12683	239.48087	580.23828	-667.79755	14.27533	522.08264	-767.75403	248.64964	505.94092	-695.47760	-55.87627	721.41571	-676.27332	-70.41942	1551.44653	-667.17828	-68.49446	161.13713	-711.38916	150.84666	215.79140	-771.08234	220.27298	205.55563	-882.41412	296.02542	144.61304	-604.05042	17.13058	169.03093	-675.09650	171.58052	156.50768	-594.64728	222.43617	173.50557	-666.82214	298.01434	161.05629	-560.40277	261.88034	165.31616	-528.11450	304.37653	146.40186	-695.87482	119.50959	1851.34851	-699.28461	292.62448	1530.47498	-625.25000	-79.95023	158.11104	-517.53790	-72.76075	143.09290	-629.51276	306.24915	163.21155	-609.25592	104.01955	1433.44275	-769.53656	-5.22741	207.69011	-793.79401	57.44927	175.67972	-795.80096	170.62466	184.70126	-596.19202	-17.13585	1055.92090	-766.42767	-34.54449	491.60153	-875.86865	-78.72662	141.20197	-588.00073	211.19482	1074.09668	-700.78723	-33.22977	617.14471	-716.18152	-28.02598	569.81128	-562.86096	-42.01706	162.96988	-793.63806	87.77729	1056.02283	-716.03229	75.93110	217.58784	-586.64050	-10.39378	806.56677	-685.61951	137.55875	579.61615	-675.21442	54.12392	160.50996	
287	5.720	-720.46991	244.25334	644.27783	-647.96613	-76.69064	862.30072	-638.79053	273.64621	880.59674	-583.90656	209.09985	818.22766	-673.05200	199.56435	535.30682	-690.11194	266.17972	753.37781	-689.79193	77.26545	581.80597	-725.55621	239.27856	579.76843	-668.17792	14.36616	522.27826	-767.82794	248.73199	505.81934	-695.76129	-55.99364	721.75745	-676.36633	-70.37878	1551.27942	-667.16510	-68.30849	161.07347	-711.25653	150.96010	216.15701	-771.08734	220.24214	205.34859	-882.49176	295.99121	144.50285	-604.16553	17.19662	168.91714	-675.17212	171.58476	156.65622	-594.71112	222.46974	173.44844	-666.80994	297.94559	161.01768	-560.32983	261.85739	165.29124	-528.02759	304.34650	146.51938	-696.17065	119.26768	1851.32581	-699.64404	292.27942	1530.40259	-625.29700	-79.82549	157.80064	-517.46112	-72.77483	142.98488	-629.50513	305.97592	163.22836	-609.68732	103.98952	1433.09924	-769.72009	-5.30258	207.48900	-793.79401	57.44927	175.67972	-795.63544	170.89531	184.51625	-596.52618	-16.84388	1055.72974	-766.90588	-34.77346	491.64099	-875.98657	-78.65415	141.42352	-588.53491	211.03035	1074.18738	-701.49707	-32.95927	617.16241	-716.50653	-27.66193	569.29950	-563.06342	-41.97565	163.19495	-793.99664	87.63828	1056.10486	-716.21045	75.90083	217.71574	-586.80292	-10.27260	806.57355	-686.32336	137.77908	579.47064	-675.29291	54.27401	160.44127	
